<svg width="35" height="35" viewBox="0 0 35 35" fill="none" xmlns="http://www.w3.org/2000/svg">
<path d="M0 29.1666V25.1197C0 24.2933 0.206597 23.5277 0.619792 22.8228C1.03299 22.118 1.60417 21.5833 2.33333 21.2187C2.67361 21.0485 3.00174 20.8905 3.31771 20.7447C3.65799 20.5989 4.01042 20.4652 4.375 20.3437V29.1666H0ZM5.83333 18.9583C4.61806 18.9583 3.58507 18.5329 2.73438 17.6822C1.88368 16.8315 1.45833 15.7985 1.45833 14.5833C1.45833 13.368 1.88368 12.335 2.73438 11.4843C3.58507 10.6336 4.61806 10.2083 5.83333 10.2083C7.04861 10.2083 8.0816 10.6336 8.93229 11.4843C9.78299 12.335 10.2083 13.368 10.2083 14.5833C10.2083 15.7985 9.78299 16.8315 8.93229 17.6822C8.0816 18.5329 7.04861 18.9583 5.83333 18.9583ZM5.83333 16.0416C6.24653 16.0416 6.58681 15.9079 6.85417 15.6405C7.14583 15.3489 7.29167 14.9964 7.29167 14.5833C7.29167 14.1701 7.14583 13.8298 6.85417 13.5624C6.58681 13.2708 6.24653 13.1249 5.83333 13.1249C5.42014 13.1249 5.06771 13.2708 4.77604 13.5624C4.50868 13.8298 4.375 14.1701 4.375 14.5833C4.375 14.9964 4.50868 15.3489 4.77604 15.6405C5.06771 15.9079 5.42014 16.0416 5.83333 16.0416ZM5.83333 29.1666V25.0833C5.83333 24.2569 6.03993 23.5034 6.45313 22.8228C6.89063 22.118 7.46181 21.5833 8.16667 21.2187C9.67361 20.4652 11.2049 19.9062 12.7604 19.5416C14.316 19.1527 15.8958 18.9583 17.5 18.9583C19.1042 18.9583 20.684 19.1527 22.2396 19.5416C23.7951 19.9062 25.3264 20.4652 26.8333 21.2187C27.5382 21.5833 28.0972 22.118 28.5104 22.8228C28.9479 23.5034 29.1667 24.2569 29.1667 25.0833V29.1666H5.83333ZM8.75 26.2499H26.25V25.0833C26.25 24.8159 26.1771 24.5728 26.0313 24.3541C25.9097 24.1353 25.7396 23.9652 25.5208 23.8437C24.2083 23.1874 22.8837 22.7013 21.5469 22.3853C20.2101 22.0451 18.8611 21.8749 17.5 21.8749C16.1389 21.8749 14.7899 22.0451 13.4531 22.3853C12.1163 22.7013 10.7917 23.1874 9.47917 23.8437C9.26042 23.9652 9.07812 24.1353 8.93229 24.3541C8.81076 24.5728 8.75 24.8159 8.75 25.0833V26.2499ZM17.5 17.4999C15.8958 17.4999 14.5226 16.9287 13.3802 15.7864C12.2378 14.644 11.6667 13.2708 11.6667 11.6666C11.6667 10.0624 12.2378 8.68916 13.3802 7.54679C14.5226 6.40443 15.8958 5.83325 17.5 5.83325C19.1042 5.83325 20.4774 6.40443 21.6198 7.54679C22.7622 8.68916 23.3333 10.0624 23.3333 11.6666C23.3333 13.2708 22.7622 14.644 21.6198 15.7864C20.4774 16.9287 19.1042 17.4999 17.5 17.4999ZM17.5 14.5833C18.3021 14.5833 18.9826 14.3037 19.5417 13.7447C20.125 13.1614 20.4167 12.4687 20.4167 11.6666C20.4167 10.8645 20.125 10.1839 19.5417 9.62492C18.9826 9.04159 18.3021 8.74992 17.5 8.74992C16.6979 8.74992 16.0052 9.04159 15.4219 9.62492C14.8628 10.1839 14.5833 10.8645 14.5833 11.6666C14.5833 12.4687 14.8628 13.1614 15.4219 13.7447C16.0052 14.3037 16.6979 14.5833 17.5 14.5833ZM29.1667 18.9583C27.9514 18.9583 26.9184 18.5329 26.0677 17.6822C25.217 16.8315 24.7917 15.7985 24.7917 14.5833C24.7917 13.368 25.217 12.335 26.0677 11.4843C26.9184 10.6336 27.9514 10.2083 29.1667 10.2083C30.3819 10.2083 31.4149 10.6336 32.2656 11.4843C33.1163 12.335 33.5417 13.368 33.5417 14.5833C33.5417 15.7985 33.1163 16.8315 32.2656 17.6822C31.4149 18.5329 30.3819 18.9583 29.1667 18.9583ZM29.1667 16.0416C29.5799 16.0416 29.9201 15.9079 30.1875 15.6405C30.4792 15.3489 30.625 14.9964 30.625 14.5833C30.625 14.1701 30.4792 13.8298 30.1875 13.5624C29.9201 13.2708 29.5799 13.1249 29.1667 13.1249C28.7535 13.1249 28.401 13.2708 28.1094 13.5624C27.842 13.8298 27.7083 14.1701 27.7083 14.5833C27.7083 14.9964 27.842 15.3489 28.1094 15.6405C28.401 15.9079 28.7535 16.0416 29.1667 16.0416ZM30.625 29.1666V20.3437C30.9896 20.4652 31.3299 20.5989 31.6458 20.7447C31.9861 20.8905 32.3264 21.0485 32.6667 21.2187C33.3958 21.5833 33.967 22.118 34.3802 22.8228C34.7934 23.5277 35 24.2933 35 25.1197V29.1666H30.625Z" fill="#F6B642"/>
</svg>
