<svg width="130" height="100" viewBox="0 0 130 100" fill="none" xmlns="http://www.w3.org/2000/svg">
<g clip-path="url(#clip0_240_2134)">
<path d="M14.6119 35.7568C14.6119 35.7568 -8.9041 76.7649 3.72323 85.3178C16.3506 93.8706 49.0341 99.9999 62.1707 99.9823C75.2898 99.9648 115.174 97.2426 127.116 61.9423C139.059 26.642 105.673 2.52887 75.3249 3.70555C44.9772 4.88222 14.6119 35.7568 14.6119 35.7568Z" fill="#A7B592"/>
<path d="M115.437 22.4975C83.8778 24.2362 52.3358 25.9748 20.7763 27.7311C18.4054 26.7827 16.0169 25.8519 13.6284 24.9035C13.7338 23.9376 13.8392 22.9892 13.9445 22.0233C32.3148 14.7525 50.6498 7.3763 69.1079 0.368921C71.2505 -0.438947 74.2888 0.263547 76.6597 1.01873C91.9038 5.95375 107.113 11.0293 122.269 16.2277C124.219 16.8951 125.869 18.423 129.329 20.6007C123.305 21.4262 119.371 21.953 115.437 22.4975ZM108.974 17.7908C97.875 13.4177 85.7921 8.62322 73.6565 3.9692C72.4623 3.51258 70.7763 3.61796 69.5821 4.1097C55.5849 9.81746 41.6404 15.6306 28.2052 21.2154C55.1809 20.0739 82.5431 18.9148 108.974 17.7908Z" fill="white"/>
<path d="M15.8413 71.9354C30.8396 71.5314 45.8554 71.1451 60.8536 70.6884C81.1206 70.0738 101.37 69.3888 121.637 68.739C121.373 72.6203 121.11 76.5191 120.847 80.4004C120.214 79.7682 119.6 79.1535 118.967 78.5212C119.687 73.0945 116.526 72.3393 112.153 72.5676C81.3489 74.2185 50.5269 75.8166 20.3548 77.3797C19.0728 80.1019 18.019 82.3323 16.9829 84.5627C16.5965 80.3653 16.2277 76.1503 15.8413 71.9354Z" fill="white"/>
<path d="M22.5148 31.3313C26.6771 30.541 30.8569 29.7507 36.5998 28.6619C37.074 40.5164 37.3023 51.1592 38.0048 61.7493C38.4087 68.0542 34.1411 67.703 30.1017 68.3352C25.2194 69.0904 22.8836 67.0356 22.866 62.2586C22.8309 56.1645 23.0417 50.0528 22.9363 43.9587C22.8836 40.7974 22.4094 37.6538 22.1284 34.4926C22.2338 33.4388 22.3743 32.3851 22.5148 31.3313ZM28.8899 63.9622C33.4561 61.8196 34.7206 47.6995 31.5945 33.8252C27.3444 36.8284 25.9219 52.6696 28.8899 63.9622Z" fill="white"/>
<path d="M27.7837 83.5617C35.1774 81.9986 42.5361 79.2413 49.9474 79.0657C72.1111 78.5739 94.2923 79.1008 116.474 79.2062C117.299 79.2062 118.124 78.7671 118.95 78.5388C119.582 79.1711 120.197 79.7857 120.829 80.418C116.807 81.2083 112.785 82.0162 108.764 82.8065C86.6527 83.2455 64.5592 83.7197 42.4483 84.1061C38.163 84.1763 33.8603 83.8778 29.5575 83.7373C28.9779 83.6846 28.3808 83.6143 27.7837 83.5617Z" fill="white"/>
<path d="M45.9078 65.0861C45.2229 53.5652 44.538 42.0618 43.853 30.8395C54.3377 26.607 56.1642 27.3446 57.0248 37.1444C57.6746 44.6259 57.9205 52.3007 56.8843 59.6769C56.4979 62.4693 52.0546 64.7173 49.4554 67.2111C48.2612 66.5086 47.0845 65.8061 45.9078 65.0861ZM49.4203 60.7482C50.2984 60.836 51.1765 60.9062 52.0546 60.994C52.0546 51.7387 52.0546 42.4833 52.0546 33.228C51.1765 33.228 50.2984 33.2455 49.4203 33.2455C49.4203 42.4131 49.4203 51.5806 49.4203 60.7482Z" fill="white"/>
<path d="M66.5966 66.3154C65.9644 56.0239 65.297 46.5051 64.858 36.9512C64.6297 32.0688 64.8053 27.3621 71.7424 27.2392C78.5215 27.1162 77.977 32.3674 78.3459 36.354C78.9254 42.4306 78.0473 48.7004 78.9781 54.6891C80.5763 64.8577 75.2022 66.7545 66.5966 66.3154ZM69.8457 30.98C69.8457 41.6403 69.8457 51.8616 69.8457 62.4517C77.0638 58.8514 77.0111 35.7394 69.8457 30.98Z" fill="white"/>
<path d="M98.8056 61.5737C86.3188 65.7184 86.2661 65.7184 86.1256 54.619C86.0202 46.2945 86.108 37.9524 86.108 29.4873C89.2517 29.6805 92.0441 29.8561 95.82 30.102C96.8386 40.7448 97.8397 51.2997 98.8056 61.5737ZM90.5337 60.3092C91.9914 60.1336 93.4491 59.958 94.9068 59.7824C93.9584 50.808 92.9925 41.8512 92.0441 32.8768C90.885 32.9998 89.7083 33.1227 88.5492 33.2456C89.2166 42.2551 89.8839 51.2822 90.5337 60.3092Z" fill="white"/>
<path d="M105.005 61.96C105.005 52.4237 104.724 42.8522 105.251 33.3334C105.356 31.4894 108.64 29.8034 110.467 28.0647C112.17 29.8561 115.209 31.5596 115.332 33.4388C115.841 41.254 116.122 49.2098 115.086 56.9196C114.717 59.712 110.379 61.96 107.85 64.4539C106.902 63.6285 105.953 62.7855 105.005 61.96ZM111.011 33.3334C110.484 33.3158 109.975 33.2983 109.448 33.2983C109.448 41.658 109.448 50.0352 109.448 58.3949C109.975 58.4124 110.484 58.43 111.011 58.4476C111.011 50.0703 111.011 41.6931 111.011 33.3334Z" fill="white"/>
<path d="M108.974 17.7906C82.543 18.9146 55.1808 20.0737 28.2051 21.2153C41.6578 15.6304 55.6023 9.79975 69.582 4.10955C70.7762 3.6178 72.4622 3.51243 73.6564 3.96905C85.792 8.62307 97.8749 13.4176 108.974 17.7906Z" fill="#A7B592"/>
</g>
<defs>
<clipPath id="clip0_240_2134">
<rect width="129.593" height="100" fill="white"/>
</clipPath>
</defs>
</svg>
