<svg width="110" height="100" viewBox="0 0 110 100" fill="none" xmlns="http://www.w3.org/2000/svg">
<g clip-path="url(#clip0_240_2120)">
<path d="M84.495 23.1974C92.2324 25.892 99.8344 28.7822 103.568 37.0165C96.5979 37.0767 89.6131 36.9412 82.6584 37.3175C80.837 37.4229 77.7209 38.9584 77.5553 40.1777C76.5166 47.4033 76.1554 54.7344 75.5833 61.9751C86.0756 61.9751 95.1227 61.9751 103.357 61.9751C103.989 54.0871 104.561 46.9517 105.118 39.8164C111.305 46.5152 108.851 54.644 107.316 61.6439C102.619 83.0348 83.0348 98.8259 61.3428 99.6538C56.7063 99.8345 52.0097 98.5399 47.3431 97.9076C47.7345 97.2754 48.6226 96.2969 48.457 96.0711C41.9539 86.9036 35.3455 77.8113 27.8489 67.4545C21.3458 77.7661 16.0771 86.0907 10.8234 94.4303C6.68375 91.4497 -0.16557 91.0132 1.80444e-05 83.8778C0.286033 71.7146 17.2061 39.7712 22.2791 35.3756C22.0985 42.2099 22.8812 48.5323 31.0854 50.399C39.3798 52.2807 46.5452 49.4807 48.1861 43.8959C50.3237 36.61 46.1238 30.393 37.0766 27.4575C35.6616 27.0059 34.2165 26.6296 32.7864 26.2081C38.6723 18.2298 47.5237 18.5158 56.044 17.8835C54.5988 21.1652 53.1537 24.4468 51.3774 28.4511C61.7342 27.8339 70.9017 27.4425 80.0241 26.5844C81.6047 26.449 83.0047 24.3866 84.495 23.1974ZM63.8567 44.4228C65.6631 45.2507 66.8222 45.7776 67.9663 46.3195C68.3125 45.9883 68.6437 45.6421 68.9899 45.3109C67.3642 42.5411 65.7384 39.7562 63.5857 36.0832C60.2439 39.2745 57.6999 41.683 55.1709 44.1066C55.8784 44.3023 56.5859 44.5131 57.2934 44.7088C57.6697 46.6657 58.9944 49.1796 58.2418 50.5043C54.7042 56.6913 50.5796 62.5471 46.6807 68.5233C45.898 69.7125 45.1603 70.9469 44.4077 72.1512C55.3064 66.1148 60.5148 56.2849 63.8567 44.4228Z" fill="#CFA9B5"/>
<path d="M10.8081 94.4452C16.0768 86.1056 21.3305 77.766 27.8336 67.4695C35.3302 77.8262 41.9386 86.9336 48.4417 96.0861C48.6073 96.3269 47.7192 97.2903 47.3278 97.9226C34.4721 98.6 21.6165 99.2774 7.8125 100C9.06194 97.6968 9.93503 96.071 10.8081 94.4452Z" fill="white"/>
<path d="M84.4949 23.1974C83.0046 24.3866 81.6047 26.4489 80.009 26.5994C70.8866 27.4424 61.7191 27.8489 51.3623 28.4661C53.1386 24.4468 54.5837 21.1802 56.0289 17.8985C59.3406 12.1331 62.6373 6.38266 66.3104 0C72.678 8.12886 78.594 15.6706 84.4949 23.1974ZM60.3492 17.2512C59.0998 19.4641 57.8503 21.692 56.2396 24.5522C64.519 23.95 71.5339 23.4533 79.2563 22.8963C76.9682 20.0361 75.2822 17.9437 73.5962 15.8362C71.3984 12.7503 69.2006 9.66431 66.4609 5.85579C64.0524 10.3417 62.2008 13.804 60.3492 17.2512Z" fill="white"/>
<path d="M105.118 39.8314C104.546 46.9668 103.974 54.087 103.357 61.9901C95.1229 61.9901 86.0757 61.9901 75.5835 61.9901C76.1706 54.7644 76.5168 47.4334 77.5555 40.1927C77.7361 38.9734 80.8371 37.4379 82.6586 37.3326C89.6133 36.9412 96.5981 37.0917 103.568 37.0315C104.08 37.9498 104.607 38.8831 105.118 39.8314ZM79.3318 58.859C86.6327 58.859 93.2261 58.859 100.241 58.859C100.241 52.6419 100.241 46.7861 100.241 40.0121C93.6326 40.4035 87.3101 40.7647 80.5511 41.1561C80.2651 44.2421 79.9942 46.6807 79.8286 49.1345C79.6028 52.2957 79.4974 55.4569 79.3318 58.859Z" fill="white"/>
<path d="M32.7865 26.208C34.2166 26.6145 35.6617 26.9908 37.0768 27.4574C46.1239 30.3929 50.3238 36.6099 48.1862 43.8958C46.5454 49.4806 39.3799 52.2806 31.0855 50.3989C22.8964 48.5473 22.0986 42.2098 22.2792 35.3756C25.7867 32.3197 29.2791 29.2639 32.7865 26.208ZM35.5564 47.4334C42.1046 47.5839 44.9347 45.5667 45.0551 40.6744C45.1906 35.2852 40.4487 30.7843 34.2166 30.5585C29.1135 30.3778 26.2082 32.967 25.8017 38.025C25.305 44.1668 28.6167 47.2678 35.5564 47.4334Z" fill="white"/>
<path d="M63.8568 44.4226C60.5149 56.2847 55.3064 66.1146 44.4077 72.1511C45.1604 70.9468 45.898 69.7124 46.6808 68.5232C50.5796 62.547 54.7043 56.6912 58.2418 50.5042C58.9945 49.1795 57.6698 46.6656 57.2935 44.7086C56.5859 44.5129 55.8784 44.3022 55.1709 44.1065C57.715 41.6829 60.2439 39.2743 63.5858 36.083C65.7384 39.756 67.3642 42.5259 68.99 45.3108C68.6438 45.6419 68.3126 45.9882 67.9663 46.3193C66.8223 45.7774 65.6632 45.2506 63.8568 44.4226Z" fill="white"/>
<path d="M73.5812 15.8362C75.2672 17.9437 76.9532 20.0361 79.2413 22.8962C71.5189 23.4532 64.504 23.965 56.2246 24.5521C57.8353 21.692 59.0848 19.4791 60.3342 17.2512C64.7599 16.7845 69.1706 16.3028 73.5812 15.8362Z" fill="#CFA9B5"/>
<path d="M79.3315 58.8589C79.4971 55.4418 79.6176 52.2957 79.8133 49.1495C79.9788 46.6958 80.2498 44.2571 80.5358 41.1712C87.3099 40.7798 93.6323 40.4034 100.226 40.0271C100.226 46.7861 100.226 52.6569 100.226 58.874C93.2108 58.859 86.6174 58.8589 79.3315 58.8589Z" fill="#CFA9B5"/>
<path d="M35.5562 47.4333C28.6166 47.2828 25.3048 44.1667 25.8016 38.0249C26.208 32.967 29.1284 30.3778 34.2164 30.5584C40.4335 30.7842 45.1904 35.2852 45.0549 40.6743C44.9345 45.5516 42.1045 47.5688 35.5562 47.4333Z" fill="#CFA9B5"/>
</g>
<defs>
<clipPath id="clip0_240_2120">
<rect width="109.122" height="100" fill="white"/>
</clipPath>
</defs>
</svg>
