<svg width="132" height="100" viewBox="0 0 132 100" fill="none" xmlns="http://www.w3.org/2000/svg">
<g clip-path="url(#clip0_240_2149)">
<path d="M81.8363 14.3894C87.4899 20.4715 93.1269 26.5701 98.7804 32.6522C98.5002 32.6687 98.2365 32.7016 97.9563 32.6851C80.5342 32.2896 80.5507 32.2896 80.6001 49.6293C80.6331 62.634 80.6001 75.6388 80.6001 88.4953C86.5998 88.4953 91.6435 88.4953 98.764 88.4953C98.764 69.5567 98.764 51.0962 98.764 32.6192C102.506 36.0641 106.412 39.3606 109.956 42.9868C113.137 46.2338 115.922 49.86 118.889 53.3049C117.752 54.5411 116.615 55.7608 115.477 56.997C117.455 57.4915 119.417 57.9695 120.57 58.2497C120.57 61.5627 120.57 64.612 120.57 67.6777C108.472 84.9845 93.7697 97.5937 70.9083 97.0003C64.4472 96.8355 57.9365 98.5661 51.4589 99.4727C40.6628 100.973 30.9215 99.687 24.4603 89.4842C29.2568 89.1711 34.0532 88.8579 39.1134 88.5447C39.1134 78.6057 39.1134 69.2106 39.1134 59.865C36.4102 59.865 34.2016 60.2605 32.2072 59.799C24.345 57.9365 22.6802 61.8923 22.9934 68.6502C23.3066 75.4575 23.0264 82.2813 23.0099 89.0886C9.84027 85.5943 1.71434 60.8374 5.09328 47.2393C8.81835 45.8547 12.7907 44.8823 16.252 43.0033C34.1356 33.2455 51.8709 23.2241 69.7216 13.4005C71.205 12.5928 73.0346 12.428 76.0015 11.6204C74.1719 15.6092 73.15 17.8343 72.1281 20.0759C72.5072 20.3891 72.8863 20.6858 73.2654 20.999C76.1004 18.7903 78.9684 16.5816 81.8363 14.3894ZM68.5843 44.9317C61.5462 44.9317 56.3048 44.9317 49.8106 44.9317C49.8106 56.4201 49.6293 67.2657 49.8601 78.1112C50.0908 88.5282 54.2115 91.5116 64.645 88.8579C66.2108 88.4623 68.3865 86.1712 68.4195 84.7207C68.7162 71.5182 68.5843 58.2991 68.5843 44.9317Z" fill="#E6A676"/>
<path d="M81.8363 14.3894C78.9683 16.5981 76.1003 18.7903 73.2489 20.9989C72.8698 20.6858 72.4907 20.3891 72.1116 20.0759C73.1335 17.8343 74.1719 15.5926 75.985 11.6203C73.0181 12.428 71.1885 12.5928 69.7051 13.4004C51.8709 23.2241 34.1356 33.2455 16.252 43.0032C12.7906 44.8822 8.83481 45.8547 5.09326 47.2393C5.42291 46.1844 5.75257 45.1295 6.08222 44.0746C6.8569 44.0416 7.77993 44.2724 8.3733 43.9427C25.6471 34.0861 42.9044 24.1801 60.1617 14.274C63.4252 12.395 66.6723 10.4665 69.9359 8.57104C69.6886 8.02712 69.4249 7.49967 69.1777 6.95575C67.1503 7.15354 65.1064 7.36781 63.0791 7.56561C63.178 6.09865 62.9967 3.46144 63.4417 3.34606C68.9139 1.96152 74.4356 0.576978 80.0397 0.0330522C82.5945 -0.214187 85.3471 1.41759 88.0008 2.19227C87.0448 5.07673 86.2701 8.0436 85.0339 10.7962C84.4076 12.1807 82.9241 13.2027 81.8363 14.3894ZM71.5511 8.09305C72.0621 7.89526 72.5566 7.69747 73.0511 7.49968C72.7873 7.17002 72.5401 6.6261 72.2434 6.59313C71.8149 6.54368 71.3369 6.85685 70.8754 7.02168C71.0896 7.36781 71.3204 7.71395 71.5511 8.09305Z" fill="white"/>
<path d="M63.0623 7.56567C65.0897 7.36788 67.1335 7.1536 69.1609 6.95581C69.4081 7.49974 69.6718 8.02718 69.9191 8.57111C66.6555 10.4666 63.4249 12.3951 60.1449 14.2741C42.8876 24.1801 25.6468 34.0862 8.35651 43.9428C7.76314 44.2889 6.84011 44.0417 6.06543 44.0747C8.86747 32.8335 17.2406 25.9108 26.6852 21.3286C38.3054 15.6751 50.8981 12.0489 63.0623 7.56567Z" fill="#E6A676"/>
<path d="M23.0425 89.0885C23.059 82.2647 23.3392 75.4409 23.026 68.6501C22.7129 61.8757 24.3776 57.9364 32.2398 59.7989C34.2342 60.2769 36.4429 59.8649 39.146 59.8649C39.146 69.2105 39.146 78.6056 39.146 88.5446C34.0859 88.8743 29.2894 89.1874 24.493 89.4841C23.9326 89.5665 23.4546 89.4347 23.0425 89.0885ZM28.4159 63.6723C28.4159 71.6499 28.4159 79.1495 28.4159 87.1601C31.2674 86.8799 33.5255 86.6656 35.7836 86.4513C35.7836 78.1935 35.7836 70.6115 35.7836 62.601C33.0145 62.9966 30.6905 63.3427 28.4159 63.6723Z" fill="white"/>
<path d="M8.96654 18.8067C8.96654 17.2738 8.96654 15.5432 8.96654 13.5323C6.34581 13.1532 3.90638 12.8235 0 12.2631C5.45574 8.70289 9.60936 5.98326 13.4004 3.49438C16.0046 5.17561 19.1858 7.23594 21.7076 8.86772C18.1309 11.6533 13.8289 15.0157 8.96654 18.8067Z" fill="white"/>
<path d="M120.57 67.6941C120.57 64.6283 120.57 61.579 120.57 58.266C119.416 57.9858 117.455 57.4913 115.477 57.0133C116.614 55.7772 117.752 54.5574 118.889 53.3212C121.889 51.1785 124.889 49.0358 127.575 47.1238C128.811 48.9039 130.526 51.3763 131.498 52.7773C129.191 56.3376 126.998 59.9143 124.592 63.3427C123.455 64.958 121.922 66.2601 120.57 67.6941Z" fill="white"/>
<path d="M121.707 15.6586C118.197 14.4883 114.785 13.351 111.538 12.2632C114.307 8.78536 117.537 4.74712 120.85 0.593506C123.042 2.43956 126.009 4.94492 128.861 7.35138C126.768 9.77432 123.998 13.0049 121.707 15.6586Z" fill="#272727"/>
<path d="M68.5841 44.9318C68.5841 58.2992 68.6995 71.5017 68.4193 84.7043C68.3863 86.1548 66.2106 88.4459 64.6447 88.8414C54.2112 91.4951 50.0906 88.5118 49.8598 78.0948C49.6291 67.2492 49.8104 56.4037 49.8104 44.9153C56.3045 44.9318 61.546 44.9318 68.5841 44.9318ZM54.5903 48.3601C54.5903 61.5298 54.5903 73.9247 54.5903 86.4844C57.8869 86.4844 60.7054 86.4844 63.8041 86.4844C63.8041 73.9082 63.8041 61.777 63.8041 49.0524C60.6724 48.8217 57.8869 48.6074 54.5903 48.3601Z" fill="white"/>
<path d="M98.7638 32.6356C98.7638 51.0962 98.7638 69.5732 98.7638 88.5117C91.6433 88.5117 86.5831 88.5117 80.5999 88.5117C80.5999 75.6388 80.6164 62.634 80.5999 49.6457C80.567 32.2895 80.5505 32.2895 97.9561 32.7016C98.2199 32.6851 98.5001 32.6521 98.7638 32.6356ZM93.2586 86.6821C93.2586 70.1006 93.2586 53.8323 93.2586 37.3661C90.0774 37.2013 87.4237 37.0695 84.6382 36.9211C84.6382 53.4532 84.6382 69.9193 84.6382 86.6656C87.7039 86.6821 90.3412 86.6821 93.2586 86.6821Z" fill="white"/>
<path d="M71.5512 8.09304C71.3204 7.73042 71.0896 7.36781 70.8589 7.02167C71.3204 6.85684 71.7984 6.54367 72.2269 6.59312C72.5236 6.62609 72.7709 7.1865 73.0346 7.49967C72.5566 7.68098 72.0621 7.87877 71.5512 8.09304Z" fill="#E6A676"/>
<path d="M28.416 63.6724C30.6906 63.3428 33.0147 62.9967 35.7837 62.6011C35.7837 70.6116 35.7837 78.1936 35.7837 86.4514C33.5256 86.6657 31.284 86.88 28.416 87.1602C28.416 79.1331 28.416 71.6335 28.416 63.6724Z" fill="#E6A676"/>
<path d="M54.5903 48.3601C57.9033 48.6073 60.6889 48.8216 63.8041 49.0689C63.8041 61.7934 63.8041 73.9246 63.8041 86.5009C60.7054 86.5009 57.8869 86.5009 54.5903 86.5009C54.5903 73.9082 54.5903 61.5297 54.5903 48.3601Z" fill="#E6A676"/>
<path d="M93.2586 86.682C90.3412 86.682 87.7039 86.682 84.6382 86.682C84.6382 69.9357 84.6382 53.4696 84.6382 36.9375C87.4237 37.0858 90.0775 37.2177 93.2586 37.3825C93.2586 53.8322 93.2586 70.1005 93.2586 86.682Z" fill="#E6A676"/>
</g>
<defs>
<clipPath id="clip0_240_2149">
<rect width="131.498" height="100" fill="white"/>
</clipPath>
</defs>
</svg>
